<?xml version="1.0" standalone="no"?>
<!DOCTYPE svg PUBLIC "-//W3C//DTD SVG 20010904//EN"
 "http://www.w3.org/TR/2001/REC-SVG-20010904/DTD/svg10.dtd">
<svg version="1.0" xmlns="http://www.w3.org/2000/svg"
 width="450.000000pt" height="450.000000pt" viewBox="0 0 450.000000 450.000000"
 preserveAspectRatio="xMidYMid meet">

<g transform="translate(0.000000,450.000000) scale(0.100000,-0.100000)"
fill="#000000" stroke="none">
<path d="M3334 4163 c-98 -42 -178 -128 -204 -219 -19 -64 -9 -180 20 -239 99
-204 374 -251 535 -90 72 73 98 141 93 250 -5 130 -71 231 -185 285 -65 32
-200 38 -259 13z m248 -25 c67 -31 119 -82 155 -151 23 -44 27 -65 27 -137 1
-70 -4 -94 -24 -135 -32 -66 -90 -121 -159 -153 -116 -55 -265 -28 -358 65
-64 64 -87 123 -87 223 0 70 4 93 23 130 35 65 60 97 103 127 98 67 215 79
320 31z"/>
<path d="M3390 4017 c-35 -18 -51 -54 -43 -102 6 -39 17 -55 38 -55 6 1 2 7
-7 14 -27 20 -11 26 23 9 17 -9 43 -13 58 -10 20 4 30 1 39 -14 7 -11 10 -24
7 -30 -4 -6 3 -7 18 -4 18 5 28 2 35 -10 15 -28 52 27 52 77 0 54 -46 100
-120 122 -64 19 -68 19 -100 3z"/>
<path d="M3410 3630 c0 -14 43 -30 80 -30 15 0 38 9 51 21 l24 21 -25 -16
c-31 -20 -79 -20 -108 0 -13 9 -22 11 -22 4z"/>
<path d="M673 3862 c-123 -44 -206 -161 -206 -292 0 -58 5 -80 32 -134 55
-112 147 -170 271 -170 99 0 163 28 228 99 110 120 110 290 2 408 -85 93 -216
129 -327 89z m222 -26 c190 -90 228 -341 74 -480 -92 -83 -217 -100 -327 -45
-65 32 -99 66 -135 133 -17 33 -22 58 -22 126 0 77 3 90 31 140 33 58 104 121
158 138 61 20 167 14 221 -12z"/>
<path d="M1454 3846 c-173 -64 -237 -185 -165 -311 33 -58 61 -87 61 -63 0 18
31 48 50 48 7 0 22 -8 33 -17 20 -18 20 -17 14 14 -4 22 -2 33 8 37 9 3 15 18
15 35 0 29 2 30 26 21 42 -16 117 -12 159 10 30 15 41 17 47 7 4 -7 -2 -17
-17 -25 -14 -7 -25 -17 -25 -23 0 -5 13 -3 29 5 16 9 31 12 35 9 3 -4 7 5 7
18 1 13 3 40 5 59 11 101 -5 147 -59 180 -45 28 -143 26 -223 -4z"/>
<path d="M1696 3563 c-11 -11 -6 -23 9 -23 8 0 15 4 15 9 0 13 -16 22 -24 14z"/>
<path d="M1569 3544 c-12 -15 -11 -16 11 -9 35 10 49 25 23 25 -11 0 -27 -7
-34 -16z"/>
<path d="M1602 3509 c2 -6 8 -10 13 -10 5 0 11 4 13 10 2 6 -4 11 -13 11 -9 0
-15 -5 -13 -11z"/>
<path d="M1395 3460 c3 -5 8 -10 11 -10 2 0 4 5 4 10 0 6 -5 10 -11 10 -5 0
-7 -4 -4 -10z"/>
<path d="M2906 3384 c-9 -23 -7 -177 2 -192 7 -10 129 -12 578 -10 l569 3 0
105 0 105 -571 3 c-515 2 -572 1 -578 -14z m1134 -94 l0 -90 -560 0 -560 0 0
90 0 90 560 0 560 0 0 -90z"/>
<path d="M3951 3264 c0 -11 3 -14 6 -6 3 7 2 16 -1 19 -3 4 -6 -2 -5 -13z"/>
<path d="M3065 3240 c-7 -11 22 -26 32 -16 4 3 -1 6 -11 6 -9 0 -14 5 -11 10
3 6 4 10 1 10 -3 0 -8 -5 -11 -10z"/>
<path d="M3894 3242 c3 -5 0 -13 -6 -15 -8 -3 -6 -6 5 -6 19 -1 23 14 5 25 -6
4 -8 3 -4 -4z"/>
<path d="M3925 3239 c-4 -5 -4 -13 -1 -16 3 -4 6 0 7 8 0 8 4 6 9 -6 7 -16 9
-17 9 -3 1 21 -15 32 -24 17z"/>
<path d="M2943 3213 c9 -2 23 -2 30 0 6 3 -1 5 -18 5 -16 0 -22 -2 -12 -5z"/>
<path d="M1361 3166 c6 -30 66 -56 132 -56 59 0 102 15 127 45 20 24 4 29 -19
6 -27 -27 -59 -34 -131 -29 -46 3 -66 10 -86 29 -23 21 -26 22 -23 5z"/>
<path d="M1830 3106 c0 -3 26 -31 58 -63 54 -55 102 -127 131 -200 12 -29 8
-52 -44 -250 -31 -120 -58 -226 -61 -235 -4 -14 -17 -18 -61 -18 l-56 0 7 47
c3 26 13 58 22 71 19 29 15 34 -56 60 -90 32 -194 45 -313 39 -99 -6 -108 -5
-103 11 33 118 39 280 12 359 -17 53 -72 113 -101 113 -22 0 -18 -6 19 -28 89
-53 105 -198 50 -452 l-5 -25 168 0 c153 0 174 -3 238 -25 48 -17 69 -30 68
-40 -2 -8 -8 -40 -14 -71 l-12 -57 -181 -7 c-190 -7 -218 -14 -231 -56 -6 -19
-12 -21 -55 -15 -67 9 -183 50 -241 86 -55 34 -68 37 -49 14 21 -24 94 -64
165 -89 l64 -22 -86 -6 c-77 -6 -104 -11 -92 -20 2 -1 162 1 354 6 548 13
1034 12 1078 -2 21 -7 52 -30 72 -53 69 -81 101 -222 112 -485 3 -90 10 -163
15 -163 13 0 9 256 -7 370 -14 105 -39 205 -56 226 -6 7 -8 16 -7 20 2 5 -7
19 -20 32 -12 12 -20 28 -16 34 4 6 3 8 -3 5 -5 -3 -22 3 -39 14 l-29 19 93 0
c104 0 124 7 140 47 14 37 132 489 132 508 0 7 -10 26 -22 40 l-23 26 -384 0
c-338 -1 -386 -2 -402 -17 -16 -15 -19 -11 -51 52 -39 81 -178 236 -178 200z
m290 -252 c0 -3 -4 -13 -9 -22 -15 -27 -131 -482 -131 -511 0 -15 5 -32 11
-38 14 -14 -81 -21 -383 -27 -239 -5 -253 -2 -210 37 15 14 60 18 271 26 139
5 254 11 255 13 2 2 31 113 66 248 45 179 68 250 82 263 19 16 48 23 48 11z
m732 -11 c10 -9 18 -28 18 -43 0 -45 -126 -512 -141 -521 -8 -5 -170 -9 -361
-9 l-348 0 -15 24 c-15 22 -11 40 50 277 49 190 71 258 87 272 18 15 51 17
356 17 298 0 337 -2 354 -17z"/>
<path d="M2419 2635 c-76 -41 -46 -146 34 -116 54 21 74 88 35 115 -27 19 -35
19 -69 1z m61 -20 c17 -20 9 -45 -21 -67 -22 -16 -30 -18 -48 -9 -29 16 -26
45 5 70 31 25 47 26 64 6z"/>
<path d="M2912 3068 c-15 -15 -16 -171 -2 -199 10 -18 27 -19 568 -19 306 0
563 4 570 8 9 6 12 36 10 113 l-3 104 -565 3 c-432 2 -569 -1 -578 -10z m1128
-88 l0 -80 -137 1 c-87 0 -131 4 -118 9 19 8 19 9 -2 9 -13 1 -23 -2 -23 -7 0
-4 -25 -8 -55 -10 -33 -2 -55 1 -55 8 0 5 -5 10 -11 10 -5 0 -7 -4 -4 -10 3
-5 -3 -10 -15 -10 -12 0 -18 4 -15 10 4 7 -2 7 -19 0 -32 -12 -226 -11 -226 1
0 5 -12 9 -26 9 -15 0 -23 -4 -19 -10 5 -7 -23 -10 -85 -9 -50 1 -94 -1 -97
-5 -4 -3 199 -6 450 -6 298 0 457 -3 457 -10 0 -7 -191 -10 -554 -10 l-554 0
-6 23 c-3 12 -6 55 -6 95 l0 72 560 0 560 0 0 -80z"/>
<path d="M3875 2920 c-3 -5 -1 -10 4 -10 6 0 11 5 11 10 0 6 -2 10 -4 10 -3 0
-8 -4 -11 -10z"/>
<path d="M3916 2922 c-3 -5 1 -9 9 -9 8 0 12 4 9 9 -3 4 -7 8 -9 8 -2 0 -6 -4
-9 -8z"/>
<path d="M2934 2913 c10 -11 87 -12 80 -2 -3 5 -24 9 -46 9 -23 0 -38 -3 -34
-7z"/>
<path d="M3058 2893 c12 -2 32 -2 45 0 12 2 2 4 -23 4 -25 0 -35 -2 -22 -4z"/>
<path d="M2670 2069 c0 -5 5 -7 10 -4 6 3 10 8 10 11 0 2 -4 4 -10 4 -5 0 -10
-5 -10 -11z"/>
<path d="M992 1913 c-11 -10 -27 -41 -36 -69 -15 -47 -20 -52 -59 -64 -60 -18
-114 -46 -173 -91 -49 -37 -54 -39 -126 -39 -59 0 -78 -4 -90 -17 -26 -31 -68
-109 -68 -128 0 -10 18 -40 40 -66 39 -46 40 -49 30 -91 -12 -55 -12 -181 0
-236 10 -42 9 -45 -30 -89 -22 -25 -40 -55 -40 -66 0 -27 57 -125 80 -137 10
-6 49 -10 87 -10 66 0 71 -2 128 -45 33 -25 92 -58 132 -73 l72 -27 21 -57
c12 -32 29 -62 40 -68 10 -5 71 -10 135 -10 109 0 117 1 140 24 13 13 29 43
36 66 9 29 21 45 38 52 86 34 173 83 213 118 l46 40 52 -11 c74 -16 93 -8 129
56 40 71 39 97 -5 148 -34 40 -35 44 -27 92 10 64 10 166 0 232 -8 50 -8 52
27 91 23 25 36 49 36 67 0 36 -56 134 -83 144 -11 4 -44 3 -73 -2 -52 -9 -53
-8 -106 34 -56 44 -180 109 -209 109 -12 0 -23 16 -33 48 -31 93 -30 92 -175
92 -108 0 -132 -3 -149 -17z m275 -15 c7 -6 20 -34 29 -63 16 -48 20 -54 58
-65 66 -20 148 -65 199 -111 l49 -42 59 11 c33 6 66 9 74 6 16 -7 75 -107 75
-128 0 -8 -18 -36 -40 -61 -37 -43 -40 -50 -33 -83 10 -47 10 -216 0 -263 -7
-33 -4 -40 33 -81 22 -26 40 -53 40 -61 0 -22 -49 -105 -70 -120 -15 -10 -33
-11 -78 -3 l-58 9 -60 -48 c-56 -46 -149 -95 -205 -108 -20 -5 -29 -17 -38
-49 -24 -81 -33 -88 -110 -88 -78 0 -91 9 -112 79 -9 30 -20 46 -38 54 -101
40 -176 81 -216 118 l-46 43 -62 -11 c-34 -6 -69 -7 -78 -2 -19 10 -69 100
-69 126 0 11 18 40 40 65 38 44 39 46 28 84 -14 51 -14 199 0 248 11 38 10 41
-28 86 -22 26 -40 57 -40 69 0 26 55 117 75 125 8 3 39 0 69 -5 l54 -11 73 55
c40 31 98 66 128 78 31 11 65 24 76 29 14 5 27 27 38 64 12 35 26 60 37 64 26
10 132 2 147 -10z m-198 -47 c-19 -54 -23 -59 -62 -71 -62 -18 -125 -53 -186
-101 -52 -42 -91 -52 -113 -30 -12 11 112 89 181 114 54 19 66 27 74 52 29 91
33 95 81 95 l45 0 -20 -59z m-459 -218 c0 -5 -14 -30 -30 -58 -16 -27 -30 -57
-30 -67 0 -9 18 -39 40 -67 39 -49 40 -52 30 -93 -12 -56 -13 -161 0 -227 10
-52 10 -53 -30 -100 -22 -26 -40 -55 -40 -64 0 -10 14 -41 30 -70 17 -30 30
-56 30 -59 0 -7 -77 -1 -89 7 -17 10 -61 97 -61 120 0 12 17 42 38 66 35 39
38 47 29 74 -12 39 -12 231 0 270 9 27 5 35 -29 76 -21 25 -38 55 -38 66 0 26
47 110 68 123 20 11 82 13 82 3z m214 -852 c64 -48 148 -93 198 -106 20 -5 31
-18 41 -48 8 -23 18 -50 22 -60 7 -16 3 -18 -41 -15 l-49 3 -21 60 c-21 57
-24 61 -75 81 -78 30 -132 59 -170 91 l-33 28 30 6 c16 4 30 7 32 8 1 0 31
-21 66 -48z"/>
<path d="M1073 1571 c-76 -28 -139 -77 -182 -143 -123 -183 -50 -432 153 -524
51 -24 75 -28 146 -29 77 0 92 3 152 33 131 64 202 179 202 327 1 71 -3 89
-32 147 -61 124 -174 199 -312 205 -56 3 -88 -1 -127 -16z m241 -21 c72 -27
135 -85 177 -162 32 -58 34 -69 34 -153 0 -76 -4 -99 -26 -146 -34 -72 -96
-134 -168 -168 -47 -22 -70 -26 -146 -26 -80 0 -97 3 -148 30 -74 37 -139 109
-167 183 -31 80 -25 205 12 277 40 77 128 151 208 176 52 15 168 10 224 -11z"/>
<path d="M1127 1420 c-46 -14 -94 -56 -117 -105 -30 -61 -24 -137 13 -193 28
-43 112 -92 156 -92 122 0 225 116 206 230 -20 117 -144 194 -258 160z m142
-24 c42 -22 89 -81 97 -121 33 -179 -170 -299 -299 -177 -42 40 -57 75 -57
134 0 103 75 178 178 178 29 0 66 -7 81 -14z"/>
<path d="M3765 1215 c-86 -108 -154 -199 -151 -202 4 -4 10 -2 15 3 6 7 211
266 294 372 5 7 8 15 5 18 -3 2 -76 -84 -163 -191z"/>
<path d="M3516 1294 c-5 -14 -4 -15 9 -4 17 14 19 20 6 20 -5 0 -12 -7 -15
-16z"/>
<path d="M2060 400 c0 -6 29 -10 68 -10 38 0 152 -3 253 -6 115 -3 178 -2 169
4 -21 13 -490 25 -490 12z"/>
</g>
</svg>
